<!--

MIT License

Copyright (c) 2020 Microsoft Corporation

Permission is hereby granted, free of charge, to any person obtaining a copy
of this software and associated documentation files (the "Software"), to deal
in the Software without restriction, including without limitation the rights
to use, copy, modify, merge, publish, distribute, sublicense, and/or sell
copies of the Software, and to permit persons to whom the Software is
furnished to do so, subject to the following conditions:

The above copyright notice and this permission notice shall be included in all
copies or substantial portions of the Software.

THE SOFTWARE IS PROVIDED "AS IS", WITHOUT WARRANTY OF ANY KIND, EXPRESS OR
IMPLIED, INCLUDING BUT NOT LIMITED TO THE WARRANTIES OF MERCHANTABILITY,
FITNESS FOR A PARTICULAR PURPOSE AND NONINFRINGEMENT. IN NO EVENT SHALL THE
AUTHORS OR COPYRIGHT HOLDERS BE LIABLE FOR ANY CLAIM, DAMAGES OR OTHER
LIABILITY, WHETHER IN AN ACTION OF CONTRACT, TORT OR OTHERWISE, ARISING FROM,
OUT OF OR IN CONNECTION WITH THE SOFTWARE OR THE USE OR OTHER DEALINGS IN THE
SOFTWARE.

-->

<svg
  xmlns="http://www.w3.org/2000/svg"
  xmlns:xlink="http://www.w3.org/1999/xlink"
  aria-hidden="true"
  role="img"
  width="20"
  height="20"
  preserveAspectRatio="xMidYMid meet"
  viewBox="0 0 20 20"
>
  <path
    d="M0 3C0 1.34315 1.34315 0 3 0H12C16.4183 0 20 3.58172 20 8V14C20 17.3137 17.3137 20 14 20H8C3.58172 20 0 16.4183 0 12V3Z"
    fill="#F4F4F4"
  />
  <path
    d="M5.5 2A2.5 2.5 0 0 0 3 4.5v9A2.5 2.5 0 0 0 5.5 16h7a2.5 2.5 0 0 0 2.5-2.5v-9A2.5 2.5 0 0 0 12.5 2h-7ZM5 5a1 1 0 0 1 1-1h6a1 1 0 0 1 1 1v2a1 1 0 0 1-1 1H6a1 1 0 0 1-1-1V5Zm0 5a1 1 0 1 1 2 0a1 1 0 0 1-2 0Zm4-1a1 1 0 1 1 0 2a1 1 0 0 1 0-2Zm0 2.75a1 1 0 1 1 0 2a1 1 0 0 1 0-2ZM11 10a1 1 0 1 1 2 0a1 1 0 0 1-2 0Zm1 1.75a1 1 0 1 1 0 2a1 1 0 0 1 0-2Zm-6 0a1 1 0 1 1 0 2a1 1 0 0 1 0-2ZM7.5 18a2.496 2.496 0 0 1-2-1h7a3.5 3.5 0 0 0 3.5-3.5v-9c.607.456 1 1.182 1 2v7a4.5 4.5 0 0 1-4.5 4.5h-5Z"
    fill="black"
    fill-opacity="0.8"
  />
</svg>