<svg
  xmlns="http://www.w3.org/2000/svg"
  width="20"
  height="20"
  viewBox="0 0 20 20"
  fill="none"
>
  <mask
    id="mask0_124_470"
    style="mask-type:alpha"
    maskUnits="userSpaceOnUse"
    x="3"
    y="9"
    width="14"
    height="9"
  >
    <path
      d="M8.76469 12.5263C4.81173 12.5263 3.82349 11.4035 3.82349 10.8421V18H17V9.57893H13.7059V10.8421C13.7059 11.4035 12.7177 12.5263 8.76469 12.5263Z"
      fill="#fff"
    />
  </mask>
  <g
    mask="url(#mask0_124_470)"
    stroke="#AAA2A1"
    stroke-width="1.25"
    stroke-linecap="round"
    stroke-linejoin="round"
  >
    <path d="M6.29462 12.1053V15.0527"/>
    <path d="M16.1766 12.1053V15.0527"/>
    <path d="M6.29462 15.0527C6.29462 15.6141 7.28286 16.7369 11.2358 16.7369C15.1888 16.7369 16.177 15.6141 16.177 15.0527"/>
    <path d="M6.29462 12.1053C6.29462 12.6667 7.28286 13.7895 11.2358 13.7895C15.1888 13.7895 16.177 12.6667 16.177 12.1053"/>
    <path d="M16.1766 12.1053C16.1766 11.5439 15.1883 10.4211 11.2354 10.4211C7.28241 10.4211 6.29417 11.5439 6.29417 12.1053"/>
  </g>
  <mask
    id="mask1_124_470"
    style="mask-type:alpha"
    maskUnits="userSpaceOnUse"
    x="3"
    y="5"
    width="14"
    height="9"
  >
    <path
      d="M11.2353 8.31585C7.28238 8.31585 6.29414 7.19304 6.29414 6.63164V5.78953H3V13.7896H16.1765V6.63164C16.1765 7.19304 15.1883 8.31585 11.2353 8.31585Z"
      fill="#fff"
    />
  </mask>
  <g
    mask="url(#mask1_124_470)"
    stroke="#AAA2A1"
    stroke-width="1.25"
    stroke-linecap="round"
    stroke-linejoin="round"
  >
    <path d="M3.82349 7.89475V10.8421"/>
    <path d="M13.706 7.89475V10.8421"/>
    <path d="M3.82349 10.8421C3.82349 11.4035 4.81173 12.5263 8.76469 12.5263C12.7177 12.5263 13.7059 11.4035 13.7059 10.8421"/>
    <path d="M3.82349 7.89475C3.82349 8.45616 4.81173 9.57897 8.76469 9.57897C12.7177 9.57897 13.7059 8.45616 13.7059 7.89475"/>
    <path d="M13.706 7.89475C13.706 7.33335 12.7178 6.21054 8.76479 6.21054C4.81183 6.21054 3.82358 7.33335 3.82358 7.89475"/>
  </g>
  <path
    d="M6.29462 3.68423V6.63161"
    stroke="#AAA2A1"
    stroke-width="1.25"
    stroke-linecap="round"
    stroke-linejoin="round"
  />
  <g
    stroke="#AAA2A1"
    stroke-width="1.25"
    stroke-linecap="round"
    stroke-linejoin="round"
  >
    <path d="M16.1766 3.68423V6.63161"/>
    <path d="M6.29462 6.63158C6.29462 7.19299 7.28286 8.3158 11.2358 8.3158C15.1888 8.3158 16.177 7.19299 16.177 6.63158"/>
    <path d="M6.29462 3.68423C6.29462 4.24563 7.28286 5.36844 11.2358 5.36844C15.1888 5.36844 16.177 4.24563 16.177 3.68423"/>
    <path d="M16.1766 3.68423C16.1766 3.12282 15.1883 2.00001 11.2354 2.00001C7.28241 2.00001 6.29417 3.12282 6.29417 3.68423"/>
  </g>
</svg>