<svg
  xmlns="http://www.w3.org/2000/svg"
  width="23"
  height="33"
  viewBox="0 0 23 33"
  fill="none"
>
  <path
    d="M22.8824 17C22.8758 17.3791 22.7369 17.6585 22.4657 17.8382C22.1944 18.018 21.8987 18.1078 21.5784 18.1078C21.3823 18.1078 21.1601 18.0735 20.9118 18.0049C20.6634 17.9363 20.4673 17.8791 20.3235 17.8333C20.0294 18.0948 19.6879 18.4804 19.299 18.9902C18.9101 19.5 18.5425 20.0621 18.1961 20.6765C18.3529 21.2974 18.4935 21.8284 18.6176 22.2696C18.7418 22.7108 18.8758 23.1536 19.0196 23.598C19.1438 23.9967 19.3382 24.3154 19.6029 24.5539C19.8676 24.7925 20.2157 24.9118 20.6471 24.9118C20.8039 24.9118 21.0196 24.8905 21.2941 24.848C21.5686 24.8056 21.781 24.7582 21.9314 24.7059L21.7549 25.3529C21.1274 25.6144 20.6552 25.7843 20.3382 25.8627C20.0212 25.9412 19.6797 25.9804 19.3137 25.9804C18.8562 25.9804 18.4788 25.8758 18.1814 25.6667C17.884 25.4575 17.6438 25.0261 17.4608 24.3725C17.3301 23.8954 17.2239 23.4951 17.1422 23.1716C17.0605 22.848 16.9804 22.5261 16.902 22.2059C16.6013 22.6569 16.3529 23.0409 16.1569 23.3578C15.9608 23.6748 15.634 24.1111 15.1765 24.6667C14.7778 25.1503 14.4118 25.4935 14.0784 25.6961C13.7451 25.8987 13.4052 26 13.0588 26C12.7516 26 12.4984 25.9101 12.299 25.7304C12.0997 25.5507 12 25.3007 12 24.9804C12 24.6732 12.1176 24.4101 12.3529 24.1912C12.5882 23.9722 12.9118 23.8627 13.3235 23.8627C13.5327 23.8627 13.7369 23.9003 13.9363 23.9755C14.1356 24.0507 14.3431 24.1209 14.5588 24.1863C14.8072 23.951 15.1356 23.585 15.5441 23.0882C15.9526 22.5915 16.3333 22.0261 16.6863 21.3922C16.5621 20.9281 16.4265 20.4183 16.2794 19.8627C16.1324 19.3072 15.9935 18.8203 15.8627 18.402C15.6928 17.8726 15.4967 17.5327 15.2745 17.3824C15.0523 17.232 14.768 17.1569 14.4216 17.1569C14.232 17.1569 14.031 17.183 13.8186 17.2353C13.6062 17.2876 13.4085 17.3399 13.2255 17.3922L13.4118 16.7451C13.915 16.536 14.3676 16.3644 14.7696 16.2304C15.1716 16.0964 15.4444 16.0294 15.5882 16.0294C16.0392 16.0294 16.4134 16.1389 16.7108 16.3578C17.0082 16.5768 17.2451 17 17.4216 17.6275C17.6242 18.3529 17.7435 18.7958 17.7794 18.9559C17.8154 19.116 17.8856 19.4314 17.9902 19.902C18.3039 19.4183 18.5588 19.0098 18.7549 18.6765C18.951 18.3431 19.2712 17.902 19.7157 17.3529C20.1274 16.8366 20.5082 16.482 20.8578 16.2892C21.2075 16.0964 21.5425 16 21.8627 16C22.1503 16 22.3938 16.0931 22.5931 16.2794C22.7925 16.4657 22.8889 16.7059 22.8824 17Z"
    fill="#3C3C3C"
  />
  <path
    d="M5.63672 8.85547V19.1328H4.05469V12.5C4.05469 12.2188 4.05859 11.957 4.06641 11.7148C4.07422 11.4648 4.08203 11.2227 4.08984 10.9883C4.10547 10.7461 4.12109 10.5117 4.13672 10.2852C3.97266 10.4336 3.78906 10.5898 3.58594 10.7539C3.38281 10.918 3.16797 11.0742 2.94141 11.2227L1.66406 12.125L0.890625 11.0234L4.01953 8.85547H5.63672ZM15.8555 8.86719L5.55469 26H3.89062L14.1797 8.86719H15.8555Z"
    fill="#3C3C3C"
  />
</svg>