<svg
  xmlns="http://www.w3.org/2000/svg"
  width="24"
  height="16"
  viewBox="0 0 24 16"
  fill="none"
>
  <path
    d="M23.3906 8H18.4004V6.9502L20.1924 5.13867C20.5537 4.76758 20.8434 4.45833 21.0615 4.21094C21.2829 3.96029 21.4424 3.73242 21.54 3.52734C21.641 3.32227 21.6914 3.10254 21.6914 2.86816C21.6914 2.58496 21.6117 2.37337 21.4521 2.2334C21.2959 2.09017 21.0859 2.01855 20.8223 2.01855C20.5456 2.01855 20.277 2.08203 20.0166 2.20898C19.7562 2.33594 19.4844 2.5166 19.2012 2.75098L18.3809 1.7793C18.5859 1.60352 18.8024 1.4375 19.0303 1.28125C19.2614 1.125 19.5283 0.999674 19.8311 0.905273C20.137 0.807617 20.5033 0.758789 20.9297 0.758789C21.3984 0.758789 21.8005 0.843424 22.1357 1.0127C22.4743 1.18197 22.7347 1.41309 22.917 1.70605C23.0993 1.99577 23.1904 2.32454 23.1904 2.69238C23.1904 3.08626 23.1123 3.44596 22.9561 3.77148C22.7998 4.09701 22.5719 4.41927 22.2725 4.73828C21.9762 5.05729 21.6182 5.41048 21.1982 5.79785L20.2803 6.66211V6.73047H23.3906V8Z"
    fill="#3C3C3C"
  />
  <path
    d="M16.8824 7C16.8758 7.37909 16.7369 7.65851 16.4657 7.83824C16.1944 8.01798 15.8987 8.10785 15.5784 8.10784C15.3823 8.10785 15.1601 8.07354 14.9118 8.0049C14.6634 7.93628 14.4673 7.87909 14.3235 7.83333C14.0294 8.09478 13.6879 8.4804 13.299 8.9902C12.9101 9.50001 12.5425 10.0621 12.1961 10.6765C12.3529 11.2974 12.4935 11.8284 12.6176 12.2696C12.7418 12.7108 12.8758 13.1536 13.0196 13.598C13.1438 13.9967 13.3382 14.3154 13.6029 14.5539C13.8676 14.7925 14.2157 14.9118 14.6471 14.9118C14.8039 14.9118 15.0196 14.8905 15.2941 14.848C15.5686 14.8056 15.781 14.7582 15.9314 14.7059L15.7549 15.3529C15.1274 15.6144 14.6552 15.7843 14.3382 15.8627C14.0212 15.9412 13.6797 15.9804 13.3137 15.9804C12.8562 15.9804 12.4788 15.8758 12.1814 15.6667C11.884 15.4575 11.6438 15.0261 11.4608 14.3725C11.3301 13.8954 11.2239 13.4951 11.1422 13.1716C11.0605 12.848 10.9804 12.5261 10.902 12.2059C10.6013 12.6569 10.3529 13.0409 10.1569 13.3578C9.96078 13.6748 9.63398 14.1111 9.17647 14.6667C8.77777 15.1503 8.41176 15.4935 8.07843 15.6961C7.7451 15.8987 7.40523 16 7.05882 16C6.75163 16 6.49836 15.9101 6.29902 15.7304C6.09967 15.5507 6 15.3007 6 14.9804C6 14.6732 6.11765 14.4101 6.35294 14.1912C6.58824 13.9722 6.91176 13.8627 7.32353 13.8627C7.53268 13.8627 7.73693 13.9003 7.93627 13.9755C8.13562 14.0507 8.34314 14.1209 8.55882 14.1863C8.80719 13.951 9.13562 13.585 9.54412 13.0882C9.95261 12.5915 10.3333 12.0261 10.6863 11.3922C10.5621 10.9281 10.4265 10.4183 10.2794 9.86275C10.1324 9.3072 9.99346 8.82027 9.86275 8.40196C9.69281 7.87256 9.49673 7.53269 9.27451 7.38235C9.05228 7.23204 8.76797 7.15687 8.42157 7.15686C8.23202 7.15687 8.03104 7.18301 7.81863 7.23529C7.60621 7.28759 7.4085 7.33988 7.22549 7.39216L7.41176 6.7451C7.91503 6.53596 8.36765 6.36439 8.76961 6.23039C9.17157 6.09642 9.44444 6.02942 9.58824 6.02941C10.0392 6.02942 10.4134 6.1389 10.7108 6.35784C11.0082 6.57681 11.2451 7.00001 11.4216 7.62745C11.6242 8.35295 11.7435 8.79576 11.7794 8.95588C11.8154 9.11602 11.8856 9.43138 11.9902 9.90196C12.3039 9.41831 12.5588 9.00981 12.7549 8.67647C12.951 8.34314 13.2712 7.90197 13.7157 7.35294C14.1274 6.83661 14.5082 6.48204 14.8578 6.28922C15.2075 6.09642 15.5425 6.00001 15.8627 6C16.1503 6.00001 16.3938 6.09315 16.5931 6.27941C16.7925 6.4657 16.8889 6.70589 16.8824 7Z"
    fill="#3C3C3C"
  />
</svg>