<svg
  width="17"
  height="10"
  viewBox="0 0 17 10"
  fill="none"
  xmlns="http://www.w3.org/2000/svg"
>
  <path
    d="M16 0.5H12L14 1.5L16 0.5Z"
    stroke="#3c3c3c"
    stroke-linejoin="round"
  />
  <path
    d="M4.62598 10L1.74805 1.65332H1.68652C1.7002 1.84017 1.71615 2.09538 1.73438 2.41895C1.7526 2.74251 1.76855 3.08887 1.78223 3.45801C1.7959 3.82715 1.80273 4.18034 1.80273 4.51758V10H0.3125V0.00585938H2.61621L5.38477 7.9834H5.42578L8.29004 0.00585938H10.5869V10H9.02148V4.43555C9.02148 4.13021 9.02604 3.7998 9.03516 3.44434C9.04883 3.08887 9.0625 2.75163 9.07617 2.43262C9.0944 2.11361 9.10807 1.8584 9.11719 1.66699H9.0625L6.0752 10H4.62598Z"
    fill="#3c3c3c"
  />
</svg>