<svg
  xmlns="http://www.w3.org/2000/svg"
  width="27"
  height="16"
  viewBox="0 0 27 16"
  fill="none"
>
  <path
    d="M20.8824 7C20.8758 7.37909 20.7369 7.65851 20.4657 7.83824C20.1944 8.01798 19.8987 8.10785 19.5784 8.10784C19.3823 8.10785 19.1601 8.07354 18.9118 8.0049C18.6634 7.93628 18.4673 7.87909 18.3235 7.83333C18.0294 8.09478 17.6879 8.4804 17.299 8.9902C16.9101 9.50001 16.5425 10.0621 16.1961 10.6765C16.3529 11.2974 16.4935 11.8284 16.6176 12.2696C16.7418 12.7108 16.8758 13.1536 17.0196 13.598C17.1438 13.9967 17.3382 14.3154 17.6029 14.5539C17.8676 14.7925 18.2157 14.9118 18.6471 14.9118C18.8039 14.9118 19.0196 14.8905 19.2941 14.848C19.5686 14.8056 19.781 14.7582 19.9314 14.7059L19.7549 15.3529C19.1274 15.6144 18.6552 15.7843 18.3382 15.8627C18.0212 15.9412 17.6797 15.9804 17.3137 15.9804C16.8562 15.9804 16.4788 15.8758 16.1814 15.6667C15.884 15.4575 15.6438 15.0261 15.4608 14.3725C15.3301 13.8954 15.2239 13.4951 15.1422 13.1716C15.0605 12.848 14.9804 12.5261 14.902 12.2059C14.6013 12.6569 14.3529 13.0409 14.1569 13.3578C13.9608 13.6748 13.634 14.1111 13.1765 14.6667C12.7778 15.1503 12.4118 15.4935 12.0784 15.6961C11.7451 15.8987 11.4052 16 11.0588 16C10.7516 16 10.4984 15.9101 10.299 15.7304C10.0997 15.5507 10 15.3007 10 14.9804C10 14.6732 10.1176 14.4101 10.3529 14.1912C10.5882 13.9722 10.9118 13.8627 11.3235 13.8627C11.5327 13.8627 11.7369 13.9003 11.9363 13.9755C12.1356 14.0507 12.3431 14.1209 12.5588 14.1863C12.8072 13.951 13.1356 13.585 13.5441 13.0882C13.9526 12.5915 14.3333 12.0261 14.6863 11.3922C14.5621 10.9281 14.4265 10.4183 14.2794 9.86275C14.1324 9.3072 13.9935 8.82027 13.8627 8.40196C13.6928 7.87256 13.4967 7.53269 13.2745 7.38235C13.0523 7.23204 12.768 7.15687 12.4216 7.15686C12.232 7.15687 12.031 7.18301 11.8186 7.23529C11.6062 7.28759 11.4085 7.33988 11.2255 7.39216L11.4118 6.7451C11.915 6.53596 12.3676 6.36439 12.7696 6.23039C13.1716 6.09642 13.4444 6.02942 13.5882 6.02941C14.0392 6.02942 14.4134 6.1389 14.7108 6.35784C15.0082 6.57681 15.2451 7.00001 15.4216 7.62745C15.6242 8.35295 15.7435 8.79576 15.7794 8.95588C15.8154 9.11602 15.8856 9.43138 15.9902 9.90196C16.3039 9.41831 16.5588 9.00981 16.7549 8.67647C16.951 8.34314 17.2712 7.90197 17.7157 7.35294C18.1274 6.83661 18.5082 6.48204 18.8578 6.28922C19.2075 6.09642 19.5425 6.00001 19.8627 6C20.1503 6.00001 20.3938 6.09315 20.5931 6.27941C20.7925 6.4657 20.8889 6.70589 20.8824 7Z"
    fill="#3C3C3C"
  />
  <path
    d="M9.3191 2L9.1441 2.4592L4.8342 13.7033L2.7342 9.3934L2.5375 9H0V10.4H1.6625L4.2 15.6066L4.3967 16H5.4467L5.6217 15.5408L10.2809 3.4H14V2H9.3191Z"
    fill="#3C3C3C"
  />
  <path
    d="M14 2.7H22.5"
    stroke="#3C3C3C"
    stroke-width="1.4"
  />
</svg>